<svg width="100" height="100" viewBox="0 0 100 100" fill="none" xmlns="http://www.w3.org/2000/svg">
<g clip-path="url(#clip0_66_114)">
<path d="M93.0254 35.3558H95.4566C96.9863 37.7465 98.1259 40.0866 98.8756 42.376C99.6252 44.6654 100 46.9396 100 49.1987C100 51.478 99.6252 53.7623 98.8756 56.0517C98.1259 58.3411 96.9863 60.6812 95.4566 63.0719H93.0254C94.3727 60.7217 95.3756 58.3969 96.0341 56.0973C96.7026 53.7978 97.0369 51.4982 97.0369 49.1987C97.0369 46.889 96.7026 44.5844 96.0341 42.2848C95.3756 39.9853 94.3727 37.6756 93.0254 35.3558Z" />
<path d="M75.3371 57.6168C73.3313 56.462 72.3284 54.7246 72.3284 52.4048C72.3284 50.085 73.3313 48.3477 75.3371 47.1929C76.34 46.6154 77.3429 46.3267 78.3458 46.3267C79.3487 46.3267 80.3515 46.6154 81.3544 47.1929C83.3703 48.3477 84.3783 50.085 84.3783 52.4048C84.3783 54.7246 83.3703 56.462 81.3544 57.6168C80.3515 58.1942 79.3487 58.4829 78.3458 58.4829C77.3429 58.4829 76.34 58.1942 75.3371 57.6168ZM74.6381 45.9924C72.1664 47.4107 70.9305 49.5481 70.9305 52.4048C70.9305 55.2615 72.1664 57.399 74.6381 58.8172C75.874 59.5365 77.1099 59.8961 78.3458 59.8961C79.5816 59.8961 80.8175 59.5365 82.0534 58.8172C84.5353 57.3889 85.7763 55.2514 85.7763 52.4048C85.7763 49.5583 84.5353 47.4208 82.0534 45.9924C80.8175 45.2732 79.5816 44.9136 78.3458 44.9136C77.1099 44.9136 75.874 45.2732 74.6381 45.9924ZM73.7112 60.4279C70.6215 58.645 69.0767 55.9707 69.0767 52.4048C69.0767 48.839 70.6215 46.1646 73.7112 44.3817C75.251 43.4903 76.7959 43.0446 78.3458 43.0446C79.8856 43.0446 81.4304 43.4903 82.9803 44.3817C86.0802 46.1646 87.6301 48.839 87.6301 52.4048C87.6301 55.9707 86.0802 58.645 82.9803 60.4279C81.4304 61.3194 79.8856 61.7651 78.3458 61.7651C76.7959 61.7651 75.251 61.3194 73.7112 60.4279Z" />
<path d="M63.2276 35.3558C61.8802 37.6655 60.8723 39.9701 60.2037 42.2696C59.5452 44.559 59.216 46.8687 59.216 49.1987C59.216 51.5185 59.5452 53.8282 60.2037 56.1277C60.8723 58.4273 61.8802 60.742 63.2276 63.0719H60.7963C59.2667 60.661 58.127 58.3158 57.3774 56.0365C56.6278 53.7471 56.2529 51.4678 56.2529 49.1987C56.2529 46.9396 56.6278 44.6654 57.3774 42.376C58.127 40.0866 59.2667 37.7465 60.7963 35.3558H63.2276Z" />
<path d="M36.7725 35.3558H39.2037C40.7334 37.7465 41.873 40.0866 42.6226 42.376C43.3723 44.6654 43.7471 46.9396 43.7471 49.1987C43.7471 51.478 43.3723 53.7623 42.6226 56.0517C41.873 58.3411 40.7334 60.6812 39.2037 63.0719H36.7725C38.1198 60.7217 39.1227 58.3969 39.7811 56.0973C40.4497 53.7978 40.784 51.4982 40.784 49.1987C40.784 46.889 40.4497 44.5844 39.7811 42.2848C39.1227 39.9853 38.1198 37.6756 36.7725 35.3558Z" />
<path d="M19.0852 57.6168C17.0794 56.462 16.0765 54.7246 16.0765 52.4048C16.0765 50.085 17.0794 48.3477 19.0852 47.1929C20.088 46.6154 21.0909 46.3267 22.0938 46.3267C23.0967 46.3267 24.0996 46.6154 25.1025 47.1929C27.1184 48.3477 28.1263 50.085 28.1263 52.4048C28.1263 54.7246 27.1184 56.462 25.1025 57.6168C24.0996 58.1942 23.0967 58.4829 22.0938 58.4829C21.0909 58.4829 20.088 58.1942 19.0852 57.6168ZM18.3862 45.9924C15.9144 47.4107 14.6785 49.5481 14.6785 52.4048C14.6785 55.2615 15.9144 57.399 18.3862 58.8172C19.6221 59.5365 20.8579 59.8961 22.0938 59.8961C23.3297 59.8961 24.5656 59.5365 25.8015 58.8172C28.2834 57.3889 29.5243 55.2514 29.5243 52.4048C29.5243 49.5583 28.2834 47.4208 25.8015 45.9924C24.5656 45.2732 23.3297 44.9136 22.0938 44.9136C20.8579 44.9136 19.6221 45.2732 18.3862 45.9924ZM17.4593 60.4279C14.3696 58.645 12.8247 55.9707 12.8247 52.4048C12.8247 48.839 14.3696 46.1646 17.4593 44.3817C18.9991 43.4903 20.5439 43.0446 22.0938 43.0446C23.6336 43.0446 25.1785 43.4903 26.7284 44.3817C29.8282 46.1646 31.3781 48.839 31.3781 52.4048C31.3781 55.9707 29.8282 58.645 26.7284 60.4279C25.1785 61.3194 23.6336 61.7651 22.0938 61.7651C20.5439 61.7651 18.9991 61.3194 17.4593 60.4279Z" />
<path d="M6.97463 35.3558C5.62731 37.6655 4.61936 39.9701 3.95077 42.2696C3.29231 44.559 2.96308 46.8687 2.96308 49.1987C2.96308 51.5185 3.29231 53.8282 3.95077 56.1277C4.61936 58.4273 5.62731 60.742 6.97463 63.0719H4.54338C3.01373 60.661 1.87408 58.3158 1.12445 56.0365C0.374817 53.7471 0 51.4678 0 49.1987C0 46.9396 0.374817 44.6654 1.12445 42.376C1.87408 40.0866 3.01373 37.7465 4.54338 35.3558H6.97463Z" />
</g>

<style>
    path {
      fill: black;
    }
    @media (prefers-color-scheme: dark) {
      path {
        fill: white;
      }
    }
</style>

</svg>
